<svg width="40" height="34" viewBox="0 0 40 34" fill="none" xmlns="http://www.w3.org/2000/svg">
<path d="M18.9055 32.2C10.7003 32.2 6.59879 32.2 4.04939 29.9512C1.5 27.7055 1.5 24.086 1.5 16.85C1.5 9.61401 1.5 5.99601 4.04939 3.74724C6.59879 1.49846 10.7003 1.5 18.9055 1.5C27.1107 1.5 31.2122 1.5 33.7616 3.74724C35.8134 5.55854 36.2148 8.25553 36.2926 13.0125M11.7385 10.71H26.0725M11.7385 18.385H17.8817" stroke="#07533A" stroke-width="3" stroke-linecap="round" stroke-linejoin="round"/>
<path d="M35.5121 26.2213C36.6926 25.578 37.5712 24.6711 38.0219 23.6306C38.4726 22.59 38.4723 21.4692 38.021 20.4288C37.5698 19.3884 36.6907 18.4818 35.5098 17.8389C34.3289 17.196 32.9069 16.8499 31.4474 16.8501H30.9334C29.4742 16.8502 28.0524 17.1966 26.8719 17.8396C25.6913 18.4826 24.8126 19.3892 24.3616 20.4296C23.9105 21.4699 23.9104 22.5906 24.3612 23.631C24.8119 24.6714 25.6904 25.5781 26.8708 26.2213M26.8708 26.2213C28.0506 26.8661 29.4734 27.2128 30.9334 27.2113H31.4454C32.9054 27.2128 34.3282 26.8661 35.508 26.2213L36.7018 29.038C37.1564 30.1125 37.3858 30.6497 37.3223 30.9844C37.1933 31.6813 36.4356 32.197 35.5408 32.2001C35.1108 32.2001 34.4678 31.9484 33.1798 31.4418C32.6269 31.2238 32.3525 31.1164 32.0699 31.0519C31.4955 30.9231 30.8833 30.9231 30.3089 31.0519C30.0263 31.1164 29.7499 31.2238 29.199 31.4418C27.911 31.9484 27.268 32.2016 26.838 32.2001C25.9432 32.197 25.1855 31.6813 25.0565 30.9844C24.9951 30.6497 25.2203 30.1125 25.677 29.038L26.8708 26.2213Z" stroke="#07533A" stroke-width="3"/>
</svg>
