<svg width="54" height="54" viewBox="0 0 54 54" fill="none" xmlns="http://www.w3.org/2000/svg">
<path d="M44.4719 45.3087C48.0309 45.3087 49.628 45.3087 50.7577 43.6854C50.8077 43.6143 50.8552 43.5421 50.9002 43.4687C51.9749 41.7587 51.9749 39.0687 51.9749 33.6821C51.9749 29.5988 51.9749 27.5588 51.3751 25.8355C50.7477 24.0355 49.618 22.9122 47.2411 20.6188C44.8792 18.3388 43.2022 15.7789 41.6026 12.2522C39.3232 7.2189 38.181 4.70224 36.4714 3.33891C34.7618 1.97559 32.7449 1.97559 28.7109 1.97559H26.9613M19.4583 45.3087H34.4669" stroke="white" stroke-width="3.94962" stroke-linecap="round" stroke-linejoin="round"/>
<path d="M31.9647 1.97559L33.8292 13.5755C34.9039 20.2522 35.0789 25.3088 40.7974 25.3088H50.7249M51.972 35.3088H49.4727M26.9609 1.97559V45.3087" stroke="white" stroke-width="3.94962" stroke-linecap="round" stroke-linejoin="round"/>
<path d="M39.4701 51.9753C40.1267 51.9755 40.7769 51.8032 41.3836 51.4683C41.9903 51.1334 42.5416 50.6424 43.006 50.0234C43.4704 49.4043 43.8388 48.6693 44.0902 47.8604C44.3416 47.0514 44.4711 46.1843 44.4713 45.3086C44.4715 44.4329 44.3423 43.5658 44.0912 42.7567C43.8401 41.9475 43.4719 41.2123 43.0077 40.593C42.5436 39.9736 41.9925 39.4822 41.3859 39.1469C40.7793 38.8116 40.1292 38.6389 39.4726 38.6387C38.1465 38.6387 36.8747 39.3412 35.9371 40.5918C34.9994 41.8423 34.4726 43.5384 34.4726 45.307C34.4726 47.0755 34.9994 48.7716 35.9371 50.0222C36.8747 51.2727 38.144 51.9753 39.4701 51.9753ZM14.454 51.9753C15.1106 51.9757 15.7608 51.8037 16.3676 51.469C16.9743 51.1343 17.5257 50.6434 17.9902 50.0245C18.4548 49.4056 18.8233 48.6708 19.0749 47.8619C19.3265 47.053 19.4561 46.186 19.4565 45.3103C19.4568 44.4346 19.3278 43.5674 19.0768 42.7582C18.8258 41.949 18.4578 41.2136 17.9938 40.5941C17.5297 39.9746 16.9787 39.4831 16.3722 39.1475C15.7657 38.812 15.1156 38.6391 14.459 38.6387C13.1329 38.6382 11.861 39.3404 10.9231 40.5906C9.98519 41.8408 9.4581 43.5368 9.45776 45.3053C9.45743 47.0739 9.9839 48.7701 10.9213 50.021C11.8588 51.2719 13.1304 51.9748 14.4565 51.9753H14.454Z" stroke="white" stroke-width="3.94962"/>
<path d="M26.951 25.3184H1.97485V41.0183C1.97485 42.2683 3.70441 43.7383 5.25901 44.7183C5.80137 45.0616 6.39622 45.2183 6.99607 45.2383L9.45044 45.3316" stroke="white" stroke-width="3.94962" stroke-linecap="round" stroke-linejoin="round"/>
</svg>
