<svg width="50" height="50" viewBox="0 0 50 50" fill="none" xmlns="http://www.w3.org/2000/svg">
<path d="M35.1852 20.8333H46.2963C47.2786 20.8333 48.2206 20.3943 48.9152 19.6129C49.6098 18.8315 50 17.7717 50 16.6667V4.16667C50 3.0616 49.6098 2.00179 48.9152 1.22039C48.2206 0.438987 47.2786 0 46.2963 0H35.1852C34.2029 0 33.2609 0.438987 32.5663 1.22039C31.8717 2.00179 31.4815 3.0616 31.4815 4.16667V8.33333H27.7778C26.3044 8.33333 24.8913 8.99181 23.8494 10.1639C22.8075 11.336 22.2222 12.9257 22.2222 14.5833V22.9167H14.8148V20.8333C14.8148 19.7283 14.4246 18.6685 13.73 17.8871C13.0354 17.1057 12.0934 16.6667 11.1111 16.6667H3.7037C2.72142 16.6667 1.77937 17.1057 1.08479 17.8871C0.390211 18.6685 0 19.7283 0 20.8333V29.1667C0 30.2717 0.390211 31.3315 1.08479 32.1129C1.77937 32.8943 2.72142 33.3333 3.7037 33.3333H11.1111C12.0934 33.3333 13.0354 32.8943 13.73 32.1129C14.4246 31.3315 14.8148 30.2717 14.8148 29.1667V27.0833H22.2222V35.4167C22.2222 37.0743 22.8075 38.664 23.8494 39.8361C24.8913 41.0082 26.3044 41.6667 27.7778 41.6667H31.4815V45.8333C31.4815 46.9384 31.8717 47.9982 32.5663 48.7796C33.2609 49.561 34.2029 50 35.1852 50H46.2963C47.2786 50 48.2206 49.561 48.9152 48.7796C49.6098 47.9982 50 46.9384 50 45.8333V33.3333C50 32.2283 49.6098 31.1685 48.9152 30.3871C48.2206 29.6057 47.2786 29.1667 46.2963 29.1667H35.1852C34.2029 29.1667 33.2609 29.6057 32.5663 30.3871C31.8717 31.1685 31.4815 32.2283 31.4815 33.3333V37.5H27.7778C27.2866 37.5 26.8156 37.2805 26.4683 36.8898C26.121 36.4991 25.9259 35.9692 25.9259 35.4167V14.5833C25.9259 14.0308 26.121 13.5009 26.4683 13.1102C26.8156 12.7195 27.2866 12.5 27.7778 12.5H31.4815V16.6667C31.4815 17.7717 31.8717 18.8315 32.5663 19.6129C33.2609 20.3943 34.2029 20.8333 35.1852 20.8333ZM11.1111 29.1667H3.7037V20.8333H11.1111V29.1667ZM35.1852 33.3333H46.2963V45.8333H35.1852V33.3333ZM35.1852 4.16667H46.2963V16.6667H35.1852V4.16667Z" fill="white"/>
</svg>
