<svg width="414" height="1645" viewBox="0 0 414 1645" fill="none" xmlns="http://www.w3.org/2000/svg">
<path d="M179.329 59C272.317 93.1843 56.0029 428.316 148.99 462.5" stroke="#00CCA1" stroke-width="1.81092" stroke-dasharray="5.26 5.26"/>
<path d="M126.984 502C211.761 547.318 84.7767 778.673 169.553 823.991" stroke="#00CCA1" stroke-width="1.93012" stroke-dasharray="5.6 5.6"/>
<path d="M173.667 864C262.272 911.365 115.617 1178.56 204.222 1225.92" stroke="#00CCA1" stroke-width="2.18299" stroke-dasharray="6.34 6.34"/>
<path d="M197.984 1233C305.944 1290.71 144.235 1585.33 252.194 1643.04" stroke="#00CCA1" stroke-width="2.45794" stroke-dasharray="7.14 7.14"/>
<rect x="158" width="65" height="67.6667" rx="32.5" fill="white"/>
<path d="M191.705 43.8335V24.8448H191.219L187.731 32.0035H184.364L189.066 22.6002H194.89V43.8335H191.705Z" fill="black"/>
<rect x="99" y="419" width="65" height="67.6667" rx="32.5" fill="white"/>
<path d="M123.891 462.833V460.437C123.891 458.961 124.144 457.748 124.65 456.797C125.155 455.847 125.873 455.078 126.803 454.492C127.754 453.885 128.896 453.38 130.231 452.975L132.081 452.399C132.911 452.136 133.618 451.812 134.205 451.428C134.811 451.044 135.277 450.569 135.6 450.002C135.924 449.416 136.085 448.739 136.085 447.97V447.849C136.085 446.656 135.681 445.725 134.872 445.058C134.063 444.371 133.002 444.027 131.687 444.027C130.332 444.027 129.23 444.391 128.381 445.119C127.552 445.847 127.137 446.919 127.137 448.334V448.819H123.982V448.364C123.982 446.828 124.316 445.533 124.983 444.482C125.651 443.41 126.571 442.591 127.744 442.025C128.917 441.459 130.231 441.175 131.687 441.175C133.143 441.175 134.437 441.448 135.57 441.994C136.722 442.54 137.622 443.309 138.269 444.3C138.937 445.291 139.27 446.453 139.27 447.788V448.061C139.27 449.436 138.997 450.579 138.451 451.489C137.905 452.399 137.147 453.147 136.176 453.733C135.226 454.32 134.124 454.815 132.87 455.22L131.08 455.766C130.13 456.049 129.362 456.362 128.775 456.706C128.209 457.03 127.784 457.424 127.501 457.889C127.238 458.354 127.107 458.951 127.107 459.679V459.982H139.088V462.833H123.891Z" fill="black"/>
<rect x="131" y="796" width="65" height="67.6667" rx="32.5" fill="white"/>
<path d="M163.523 840.258C161.966 840.258 160.581 839.975 159.368 839.409C158.154 838.843 157.204 838.024 156.516 836.952C155.849 835.88 155.515 834.606 155.515 833.13V832.584H158.7V833.069C158.7 834.404 159.135 835.465 160.005 836.254C160.895 837.023 162.067 837.407 163.523 837.407C164.979 837.407 166.112 837.043 166.921 836.315C167.73 835.587 168.134 834.667 168.134 833.554V833.281C168.134 832.493 167.942 831.856 167.558 831.37C167.174 830.885 166.658 830.531 166.011 830.309C165.364 830.066 164.636 829.945 163.827 829.945H159.974V826.274L167.436 821.876V821.451H156.031V818.6H170.894V822.907L163.766 827.154V827.579H165.07C166.142 827.579 167.153 827.781 168.104 828.185C169.054 828.59 169.823 829.207 170.409 830.036C171.016 830.865 171.319 831.916 171.319 833.19V833.554C171.319 834.909 170.996 836.092 170.348 837.103C169.701 838.094 168.791 838.873 167.618 839.439C166.446 839.985 165.081 840.258 163.523 840.258Z" fill="black"/>
<rect x="201" y="1242" width="65" height="67.6667" rx="32.5" fill="white"/>
<path d="M235.564 1285.83V1281.5H224.826V1277.8L232.956 1264.6H238.749V1278.67H242.329V1281.5H238.749V1285.83H235.564ZM227.92 1278.67H235.564V1266.6H235.079L227.92 1278.25V1278.67Z" fill="black"/>
</svg>
