<svg width="37" height="31" viewBox="0 0 37 31" fill="none" xmlns="http://www.w3.org/2000/svg">
<path d="M31.5941 10.2347C32.7986 10.2348 33.9667 9.83356 34.9036 9.09788C35.8406 8.3622 36.4896 7.33655 36.7426 6.19201C36.9955 5.04747 36.8371 3.85324 36.2936 2.80852C35.7502 1.76379 34.8547 0.931737 33.7564 0.451138C32.6581 -0.029461 31.4234 -0.129547 30.2584 0.167575C29.0934 0.464697 28.0684 1.14106 27.3544 2.08385C26.6404 3.02664 26.2805 4.17886 26.3349 5.34831C26.3893 6.51777 26.8546 7.63375 27.6531 8.51011L23.6042 13.4279C22.6388 12.9106 21.5308 12.7009 20.4363 12.8282C19.3418 12.9555 18.3161 13.4135 17.5036 14.1376C16.6912 14.8616 16.133 15.8152 15.9079 16.864C15.6827 17.9128 15.8019 19.0037 16.2486 19.9832L9.64079 22.7363C8.92812 21.7014 7.85165 20.9546 6.61308 20.6359C5.37452 20.3171 4.05885 20.4482 2.91261 21.0046C1.76636 21.561 0.868205 22.5045 0.386419 23.6584C-0.0953674 24.8123 -0.127716 26.0973 0.295435 27.2727C0.718586 28.4481 1.5682 29.4332 2.68507 30.0434C3.80195 30.6537 5.10944 30.8472 6.36257 30.5876C7.61569 30.3281 8.72844 29.6334 9.49233 28.6336C10.2562 27.6339 10.6188 26.3977 10.5122 25.1568L17.9704 22.0506C18.9598 22.7508 20.1694 23.0941 21.3911 23.0215C22.6128 22.9489 23.7703 22.4648 24.6646 21.6526C25.5589 20.8404 26.1341 19.7507 26.2913 18.5709C26.4485 17.3912 26.1779 16.1951 25.526 15.1882L29.8435 9.94297C30.3945 10.1323 30.9781 10.2312 31.5941 10.2347ZM31.5941 7.67343C30.8959 7.67343 30.2263 7.40386 29.7326 6.92402C29.2389 6.44417 28.9615 5.79337 28.9615 5.11477C28.9615 4.43617 29.2389 3.78536 29.7326 3.30552C30.2263 2.82568 30.8959 2.55611 31.5941 2.55611C32.2924 2.55611 32.962 2.82568 33.4557 3.30552C33.9494 3.78536 34.2268 4.43617 34.2268 5.11477C34.2268 5.79337 33.9494 6.44417 33.4557 6.92402C32.962 7.40386 32.2924 7.67343 31.5941 7.67343ZM7.90063 25.5841C7.90063 26.2627 7.62327 26.9135 7.12956 27.3933C6.63585 27.8732 5.96623 28.1427 5.26802 28.1427C4.56981 28.1427 3.90019 27.8732 3.40648 27.3933C2.91277 26.9135 2.63541 26.2627 2.63541 25.5841C2.63541 24.9055 2.91277 24.2547 3.40648 23.7748C3.90019 23.295 4.56981 23.0254 5.26802 23.0254C5.96623 23.0254 6.63585 23.295 7.12956 23.7748C7.62327 24.2547 7.90063 24.9055 7.90063 25.5841ZM23.6963 17.9081C23.6963 18.5867 23.4189 19.2375 22.9252 19.7173C22.4315 20.1972 21.7619 20.4667 21.0637 20.4667C20.3655 20.4667 19.6959 20.1972 19.2022 19.7173C18.7084 19.2375 18.4311 18.5867 18.4311 17.9081C18.4311 17.2295 18.7084 16.5787 19.2022 16.0988C19.6959 15.619 20.3655 15.3494 21.0637 15.3494C21.7619 15.3494 22.4315 15.619 22.9252 16.0988C23.4189 16.5787 23.6963 17.2295 23.6963 17.9081Z" fill="#064E3B"/>
</svg>
