<svg width="37" height="31" viewBox="0 0 37 31" fill="none" xmlns="http://www.w3.org/2000/svg">
<path d="M35.6292 13.5145H33.8846L29.6782 6.15218C29.4633 5.77616 29.1528 5.46364 28.7782 5.24627C28.4036 5.02889 27.9782 4.91439 27.545 4.91437H9.31273C8.87963 4.91439 8.45422 5.02889 8.07962 5.24627C7.70501 5.46364 7.39452 5.77616 7.17959 6.15218L2.97319 13.5145H1.22859C0.90275 13.5145 0.590252 13.644 0.359846 13.8744C0.129441 14.1048 0 14.4173 0 14.7431C0 15.069 0.129441 15.3815 0.359846 15.6119C0.590252 15.8423 0.90275 15.9717 1.22859 15.9717H2.45719V28.2576C2.45719 28.9093 2.71607 29.5343 3.17688 29.9951C3.63769 30.4559 4.26268 30.7148 4.91437 30.7148H8.60015C9.25183 30.7148 9.87683 30.4559 10.3376 29.9951C10.7985 29.5343 11.0573 28.9093 11.0573 28.2576V25.8004H25.8004V28.2576C25.8004 28.9093 26.0593 29.5343 26.5201 29.9951C26.9809 30.4559 27.6059 30.7148 28.2576 30.7148H31.9434C32.5951 30.7148 33.2201 30.4559 33.6809 29.9951C34.1417 29.5343 34.4006 28.9093 34.4006 28.2576V15.9717H35.6292C35.955 15.9717 36.2675 15.8423 36.4979 15.6119C36.7283 15.3815 36.8578 15.069 36.8578 14.7431C36.8578 14.4173 36.7283 14.1048 36.4979 13.8744C36.2675 13.644 35.955 13.5145 35.6292 13.5145ZM9.31273 7.37156H27.545L31.0542 13.5145H5.80356L9.31273 7.37156ZM8.60015 28.2576H4.91437V25.8004H8.60015V28.2576ZM28.2576 28.2576V25.8004H31.9434V28.2576H28.2576ZM31.9434 23.3433H4.91437V15.9717H31.9434V23.3433ZM7.37156 19.6575C7.37156 19.3316 7.501 19.0191 7.7314 18.7887C7.96181 18.5583 8.27431 18.4289 8.60015 18.4289H11.0573C11.3832 18.4289 11.6957 18.5583 11.9261 18.7887C12.1565 19.0191 12.2859 19.3316 12.2859 19.6575C12.2859 19.9833 12.1565 20.2958 11.9261 20.5262C11.6957 20.7566 11.3832 20.8861 11.0573 20.8861H8.60015C8.27431 20.8861 7.96181 20.7566 7.7314 20.5262C7.501 20.2958 7.37156 19.9833 7.37156 19.6575ZM24.5719 19.6575C24.5719 19.3316 24.7013 19.0191 24.9317 18.7887C25.1621 18.5583 25.4746 18.4289 25.8004 18.4289H28.2576C28.5835 18.4289 28.896 18.5583 29.1264 18.7887C29.3568 19.0191 29.4862 19.3316 29.4862 19.6575C29.4862 19.9833 29.3568 20.2958 29.1264 20.5262C28.896 20.7566 28.5835 20.8861 28.2576 20.8861H25.8004C25.4746 20.8861 25.1621 20.7566 24.9317 20.5262C24.7013 20.2958 24.5719 19.9833 24.5719 19.6575ZM13.5145 1.22859C13.5145 0.90275 13.644 0.590252 13.8744 0.359846C14.1048 0.129441 14.4173 0 14.7431 0H22.1147C22.4405 0 22.753 0.129441 22.9834 0.359846C23.2138 0.590252 23.3433 0.90275 23.3433 1.22859C23.3433 1.55444 23.2138 1.86693 22.9834 2.09734C22.753 2.32774 22.4405 2.45719 22.1147 2.45719H14.7431C14.4173 2.45719 14.1048 2.32774 13.8744 2.09734C13.644 1.86693 13.5145 1.55444 13.5145 1.22859Z" fill="#064E3B"/>
</svg>
