<svg width="37" height="31" viewBox="0 0 37 31" fill="none" xmlns="http://www.w3.org/2000/svg">
<path d="M4.15508 18.662C3.17708 20.1275 1.39178 22.8037 4.55149 24.5879C5.54397 25.1442 6.65797 25.5289 7.82406 25.7201C8.71237 25.8304 8.75866 26.9896 7.7141 26.9626C6.6001 26.9136 1.17477 26.4896 0.303819 23.0414C-0.147569 21.0318 0.361689 19.2257 1.76215 17.27L3.77893 14.2482L0 12.4273L10.0694 7.35673V17.1597L6.2905 15.4589L4.15508 18.662ZM16.4351 2.53858C19.7772 0.999519 21.71 3.5924 22.7748 5.00647L25.107 8.10176L21.4438 10.082L31.7708 14.6746L31.2007 4.80797L27.5433 6.78571L25.3443 3.87178C23.8339 2.04353 22.7285 0.693177 20.0347 0.0853947C15.298 -0.681686 12.3871 3.97226 12.4161 3.94286C11.9415 4.64622 13.0411 5.26625 13.721 4.45751C14.4676 3.67327 15.3906 3.02138 16.4351 2.53858ZM35.515 17.7013C35.2603 17.2357 33.9264 17.3557 34.3026 18.3556C34.6816 19.3114 34.8379 20.3162 34.7569 21.321C34.4878 24.5364 30.8564 24.5119 28.8773 24.5119H24.537V20.8358L14.4097 25.7373L24.5023 30.7L24.5167 26.9626H28.8773C31.4525 26.9994 33.5069 26.5313 35.243 25.2153C38.7152 22.615 35.515 17.7013 35.515 17.7013Z" fill="#064E3B"/>
</svg>
