<svg width="50" height="50" viewBox="0 0 50 50" fill="none" xmlns="http://www.w3.org/2000/svg">
<path d="M34.7868 48.249L33.4297 49.7059C33.7981 49.8817 34.2264 49.9827 34.6687 49.998C35.111 50.0133 35.5508 49.9424 35.9412 49.7928C36.3317 49.6433 36.6581 49.4207 36.8857 49.1488C37.1132 48.8769 37.2334 48.5659 37.2335 48.249H34.7868ZM25 43.5793L26.3571 42.1223C25.9552 41.9305 25.483 41.8282 25 41.8282C24.517 41.8282 24.0448 41.9305 23.6429 42.1223L25 43.5793ZM15.2132 48.249H12.7665C12.7666 48.5659 12.8868 48.8769 13.1143 49.1488C13.3419 49.4207 13.6683 49.6433 14.0588 49.7928C14.4492 49.9424 14.889 50.0133 15.3313 49.998C15.7736 49.9827 16.2019 49.8817 16.5703 49.7059L15.2132 48.249ZM36.1439 46.792L26.3571 42.1223L23.6429 45.0362L33.4297 49.7059L36.1439 46.792ZM23.6429 42.1223L13.8561 46.792L16.5703 49.7059L26.3571 45.0362L23.6429 42.1223ZM28.1057 4.53098L28.2427 4.64772L31.9715 2.37823L31.8312 2.26149L28.1057 4.53098ZM35.7948 6.88686L36.0069 6.87285L35.6154 3.38223L35.4034 3.39624L35.7948 6.88686ZM40.4011 10.0156L40.3816 10.1697L45.2586 10.4499L45.2782 10.2981L40.4011 10.0156ZM43.5101 15.5726L43.6732 15.673L46.8441 13.0065L46.681 12.9061L43.5101 15.5726ZM43.6732 20.1185L43.5101 20.2166L46.681 22.8853L46.8441 22.7849L43.6732 20.1185ZM40.3816 25.6218L40.4011 25.7736L45.2782 25.4934L45.2586 25.3416L40.3816 25.6218ZM36.0101 28.9186L35.7948 28.9046L35.4034 32.3952L35.6154 32.4093L36.0101 28.9186ZM28.246 31.1438L28.1057 31.2605L31.8312 33.53L31.9715 33.4132L28.246 31.1438ZM21.8943 31.2605L21.7541 31.1438L18.0286 33.4132L18.1688 33.53L21.8943 31.2605ZM14.2052 28.9046L13.9931 28.9163L14.3846 32.4093L14.5967 32.3976L14.2052 28.9046ZM9.59887 25.7759L9.61845 25.6218L4.74137 25.3416L4.72179 25.4934L9.59887 25.7759ZM6.48994 20.2189L6.32683 20.1185L3.15591 22.7849L3.31902 22.8853L6.48994 20.2189ZM6.32683 15.673L6.48994 15.5726L3.31902 12.9061L3.15591 13.0065L6.32683 15.673ZM9.61845 10.1697L9.59887 10.0179L4.72179 10.2981L4.74137 10.4499L9.61845 10.1697ZM13.9899 6.87285L14.2052 6.88686L14.5967 3.39624L14.3846 3.38223L13.9899 6.87285ZM21.7541 4.64772L21.8943 4.53098L18.1688 2.26149L18.0286 2.37823L21.7541 4.64772ZM14.2052 6.88686C15.6221 6.96818 17.0457 6.80736 18.3587 6.41765C19.6718 6.02794 20.8366 5.4205 21.7573 4.64539L18.0286 2.37823C17.61 2.73031 17.0806 3.00621 16.484 3.18319C15.8873 3.36018 15.2405 3.4332 14.5967 3.39624L14.2052 6.88686ZM9.59887 10.0179C9.55206 9.59659 9.63367 9.17069 9.83804 8.77415C10.0424 8.37762 10.3647 8.01759 10.7826 7.71895C11.2004 7.42032 11.7039 7.1902 12.2583 7.04452C12.8126 6.89883 13.4045 6.84106 13.9931 6.87518L14.3846 3.38456C13.0892 3.30985 11.7865 3.43747 10.5668 3.75861C9.34707 4.07974 8.2394 4.58671 7.32042 5.24445C6.40144 5.90218 5.69309 6.69497 5.24441 7.56795C4.79572 8.44093 4.6174 9.37326 4.72179 10.3004L9.59887 10.0179ZM6.48994 15.5726C7.57187 14.9136 8.41967 14.0802 8.96358 13.1409C9.50748 12.2015 9.73193 11.1832 9.61845 10.1697L4.74137 10.4499C4.84576 11.3838 4.31727 12.2991 3.31902 12.9061L6.48994 15.5726ZM6.32683 20.1185C5.87693 19.8445 5.51558 19.5039 5.26777 19.1201C5.01997 18.7363 4.89162 18.3185 4.89162 17.8957C4.89162 17.4729 5.01997 17.0552 5.26777 16.6714C5.51558 16.2876 5.87693 15.9469 6.32683 15.673L3.15591 13.0065C2.16659 13.6093 1.372 14.3587 0.827106 15.2029C0.282208 16.047 0 16.9658 0 17.8957C0 18.8256 0.282208 19.7444 0.827106 20.5886C1.372 21.4328 2.16659 22.1822 3.15591 22.7849L6.32683 20.1185ZM9.61845 25.6218C9.73206 24.6077 9.50737 23.5888 8.96287 22.649C8.41837 21.7093 7.56966 20.8756 6.48668 20.2166L3.31902 22.8853C4.31727 23.4924 4.84576 24.4077 4.74137 25.3416L9.61845 25.6218ZM13.9899 28.9186C13.4009 28.9525 12.8088 28.8944 12.2543 28.7482C11.6999 28.6021 11.1965 28.3715 10.7788 28.0724C10.3612 27.7733 10.0394 27.4128 9.83566 27.0159C9.63192 26.6189 9.55113 26.1951 9.59887 25.7736L4.72179 25.4934C4.6174 26.4206 4.79572 27.3529 5.24441 28.2259C5.69309 29.0989 6.40144 29.8916 7.32042 30.5494C8.2394 31.2071 9.34707 31.7141 10.5668 32.0352C11.7865 32.3563 13.0892 32.484 14.3846 32.4093L13.9899 28.9186ZM28.1057 31.2605C27.7229 31.5825 27.2469 31.8411 26.7106 32.0185C26.1744 32.1959 25.5907 32.2877 25 32.2877C24.4093 32.2877 23.8256 32.1959 23.2894 32.0185C22.7531 31.8411 22.2771 31.5825 21.8943 31.2605L18.1688 33.53C19.011 34.2381 20.0581 34.8068 21.2375 35.1968C22.417 35.5868 23.7008 35.7887 25 35.7887C26.2993 35.7887 27.583 35.5868 28.7625 35.1968C29.9419 34.8068 30.989 34.2381 31.8312 33.53L28.1057 31.2605ZM40.4011 25.7736C40.4484 26.1951 40.3672 26.6189 40.1631 27.0157C39.9589 27.4126 39.6367 27.7729 39.2188 28.0718C38.8009 28.3707 38.2972 28.601 37.7426 28.7468C37.188 28.8927 36.5958 28.9505 36.0069 28.9163L35.6154 32.4093C36.9108 32.484 38.2135 32.3563 39.4332 32.0352C40.6529 31.7141 41.7606 31.2071 42.6796 30.5494C43.5986 29.8916 44.3069 29.0989 44.7556 28.2259C45.2043 27.3529 45.3826 26.4206 45.2782 25.4934L40.4011 25.7736ZM43.5101 20.2166C42.4277 20.8758 41.5796 21.7096 41.0357 22.6494C40.4917 23.5891 40.2675 24.6079 40.3816 25.6218L45.2586 25.3416C45.1542 24.4077 45.6827 23.4924 46.681 22.8853L43.5101 20.2166ZM43.6732 15.673C44.1231 15.9469 44.4844 16.2876 44.7322 16.6714C44.98 17.0552 45.1084 17.4729 45.1084 17.8957C45.1084 18.3185 44.98 18.7363 44.7322 19.1201C44.4844 19.5039 44.1231 19.8445 43.6732 20.1185L46.8441 22.7849C47.8334 22.1822 48.628 21.4328 49.1729 20.5886C49.7178 19.7444 50 18.8256 50 17.8957C50 16.9658 49.7178 16.047 49.1729 15.2029C48.628 14.3587 47.8334 13.6093 46.8441 13.0065L43.6732 15.673ZM40.3816 10.1697C40.2679 11.1838 40.4926 12.2027 41.0371 13.1425C41.5816 14.0822 42.4303 14.9159 43.5133 15.5749L46.681 12.9061C46.1891 12.6066 45.8036 12.2277 45.5563 11.8007C45.309 11.3736 45.207 10.9106 45.2586 10.4499L40.3816 10.1697ZM36.0101 6.87285C36.5991 6.83899 37.1912 6.89713 37.7457 7.04324C38.3001 7.18936 38.8036 7.41995 39.2212 7.71908C39.6388 8.0182 39.9606 8.3787 40.1643 8.77563C40.3681 9.17255 40.4489 9.59409 40.4011 10.0156L45.2782 10.2981C45.3826 9.37093 45.2043 8.43859 44.7556 7.56561C44.3069 6.69263 43.5986 5.89984 42.6796 5.24211C41.7606 4.58438 40.6529 4.07741 39.4332 3.75627C38.2135 3.43514 36.9108 3.30751 35.6154 3.38223L36.0101 6.87285ZM28.2427 4.64772C29.1634 5.42208 30.3311 6.02887 31.6435 6.41815C32.9559 6.80744 34.3787 6.96808 35.7948 6.88686L35.4034 3.39624C34.7595 3.4332 34.1127 3.36018 33.516 3.18319C32.9194 3.00621 32.39 2.73031 31.9715 2.37823L28.2427 4.64772ZM31.8344 2.26149C30.9922 1.55261 29.9448 0.983217 28.7648 0.592731C27.5847 0.202245 26.3001 0 25 0C23.6999 0 22.4153 0.202245 21.2352 0.592731C20.0552 0.983217 19.0078 1.55261 18.1656 2.26149L21.8943 4.53098C22.2771 4.20898 22.7531 3.95035 23.2894 3.77299C23.8256 3.59563 24.4093 3.50378 25 3.50378C25.5907 3.50378 26.1744 3.59563 26.7106 3.77299C27.2469 3.95035 27.7229 4.20898 28.1057 4.53098L31.8344 2.26149ZM21.7541 31.1438C20.9554 30.4721 19.9721 29.9254 18.8652 29.5378C17.7584 29.1501 16.5519 28.9298 15.3209 28.8906L15.1056 32.3906C16.2278 32.4256 17.2913 32.7922 18.0286 33.4132L21.7541 31.1438ZM15.3209 28.8906C14.9489 28.8801 14.5764 28.8848 14.2052 28.9046L14.5967 32.3952C14.7663 32.3859 14.9359 32.3844 15.1056 32.3906L15.3209 28.8906ZM17.6599 48.249V30.6394H12.7665V48.249H17.6599ZM35.7981 28.9046C35.4258 28.8847 35.0522 28.88 34.6791 28.8906L34.8944 32.3906C35.0641 32.3844 35.2337 32.3859 35.4034 32.3952L35.7981 28.9046ZM34.6791 28.8906C33.4476 28.9295 32.2404 29.1497 31.133 29.5373C30.0256 29.925 29.0449 30.4718 28.246 31.1438L31.9715 33.4132C32.3345 33.1083 32.7814 32.8602 33.2843 32.6842C33.7871 32.5083 34.3352 32.4083 34.8944 32.3906L34.6791 28.8906ZM32.3401 30.6418V48.249H37.2335V30.6394L32.3401 30.6418Z" fill="white"/>
<path d="M31.0244 18.0605L21.2376 25.0651L17.9753 22.7303" fill="white"/>
<path d="M31.0244 18.0605L21.2376 25.0651L17.9753 22.7303" stroke="white" stroke-width="5.44765" stroke-linecap="round" stroke-linejoin="round"/>
</svg>
