<svg width="54" height="54" viewBox="0 0 54 54" fill="none" xmlns="http://www.w3.org/2000/svg">
<path d="M49.5417 13.5L43.2917 19.125H37.7361M49.5417 39.75L43.2917 34.125H37.7361M49.5417 26.625H26.625M47.4583 13.5C47.4583 13.9973 47.6778 14.4742 48.0685 14.8258C48.4592 15.1775 48.9891 15.375 49.5417 15.375C50.0942 15.375 50.6241 15.1775 51.0148 14.8258C51.4055 14.4742 51.625 13.9973 51.625 13.5C51.625 13.0027 51.4055 12.5258 51.0148 12.1742C50.6241 11.8225 50.0942 11.625 49.5417 11.625C48.9891 11.625 48.4592 11.8225 48.0685 12.1742C47.6778 12.5258 47.4583 13.0027 47.4583 13.5ZM47.4583 39.75C47.4583 39.2527 47.6778 38.7758 48.0685 38.4242C48.4592 38.0725 48.9891 37.875 49.5417 37.875C50.0942 37.875 50.6241 38.0725 51.0148 38.4242C51.4055 38.7758 51.625 39.2527 51.625 39.75C51.625 40.2473 51.4055 40.7242 51.0148 41.0758C50.6241 41.4275 50.0942 41.625 49.5417 41.625C48.9891 41.625 48.4592 41.4275 48.0685 41.0758C47.6778 40.7242 47.4583 40.2473 47.4583 39.75ZM47.4583 26.625C47.4583 27.1223 47.6778 27.5992 48.0685 27.9508C48.4592 28.3025 48.9891 28.5 49.5417 28.5C50.0942 28.5 50.6241 28.3025 51.0148 27.9508C51.4055 27.5992 51.625 27.1223 51.625 26.625C51.625 26.1277 51.4055 25.6508 51.0148 25.2992C50.6241 24.9475 50.0942 24.75 49.5417 24.75C48.9891 24.75 48.4592 24.9475 48.0685 25.2992C47.6778 25.6508 47.4583 26.1277 47.4583 26.625Z" stroke="#DBE5E0" stroke-width="3.25" stroke-linecap="round" stroke-linejoin="round"/>
<path d="M19.6804 44.125H19.7048" stroke="#DBE5E0" stroke-width="4.33333" stroke-linecap="round" stroke-linejoin="round"/>
<path d="M37.7361 11.625C37.5139 8.075 36.8972 5.8175 35.2111 4.1875C32.5583 1.625 28.2861 1.625 19.7444 1.625C11.2028 1.625 6.93333 1.625 4.27778 4.1875C1.62222 6.75 1.625 10.875 1.625 19.125V34.125C1.625 42.375 1.625 46.5 4.27778 49.0625C6.93333 51.625 11.2028 51.625 19.7444 51.625C28.2861 51.625 32.5583 51.625 35.2111 49.0625C36.8972 47.4325 37.5111 45.1725 37.7361 41.625" stroke="#DBE5E0" stroke-width="3.25" stroke-linecap="round"/>
</svg>
