<svg width="17" height="21" viewBox="0 0 17 21" fill="none" xmlns="http://www.w3.org/2000/svg">
<path d="M9 13.5V20.25C9 20.4489 8.92098 20.6397 8.78033 20.7803C8.63968 20.921 8.44891 21 8.25 21C8.05109 21 7.86032 20.921 7.71967 20.7803C7.57902 20.6397 7.5 20.4489 7.5 20.25V13.5C7.5 13.3011 7.57902 13.1103 7.71967 12.9697C7.86032 12.829 8.05109 12.75 8.25 12.75C8.44891 12.75 8.63968 12.829 8.78033 12.9697C8.92098 13.1103 9 13.3011 9 13.5ZM15.75 7.5H10.0603L14.0306 3.53062C14.1714 3.38989 14.2504 3.19902 14.2504 3C14.2504 2.80098 14.1714 2.61011 14.0306 2.46938C13.8899 2.32864 13.699 2.24958 13.5 2.24958C13.301 2.24958 13.1101 2.32864 12.9694 2.46938L9 6.43969V0.75C9 0.551088 8.92098 0.360322 8.78033 0.21967C8.63968 0.0790176 8.44891 0 8.25 0C8.05109 0 7.86032 0.0790176 7.71967 0.21967C7.57902 0.360322 7.5 0.551088 7.5 0.75V6.43969L3.53063 2.46938C3.38989 2.32864 3.19902 2.24958 3 2.24958C2.80098 2.24958 2.61011 2.32864 2.46938 2.46938C2.32864 2.61011 2.24958 2.80098 2.24958 3C2.24958 3.19902 2.32864 3.38989 2.46937 3.53062L6.43969 7.5H0.75C0.551088 7.5 0.360322 7.57902 0.21967 7.71967C0.0790178 7.86032 0 8.05109 0 8.25C0 8.44891 0.0790178 8.63968 0.21967 8.78033C0.360322 8.92098 0.551088 9 0.75 9H6.43969L2.46937 12.9694C2.32864 13.1101 2.24958 13.301 2.24958 13.5C2.24958 13.699 2.32864 13.8899 2.46937 14.0306C2.61011 14.1714 2.80098 14.2504 3 14.2504C3.19902 14.2504 3.38989 14.1714 3.53063 14.0306L8.25 9.31031L12.9694 14.0306C13.0391 14.1003 13.1218 14.1556 13.2128 14.1933C13.3039 14.231 13.4015 14.2504 13.5 14.2504C13.5985 14.2504 13.6961 14.231 13.7872 14.1933C13.8782 14.1556 13.9609 14.1003 14.0306 14.0306C14.1003 13.9609 14.1556 13.8782 14.1933 13.7872C14.231 13.6961 14.2504 13.5985 14.2504 13.5C14.2504 13.4015 14.231 13.3039 14.1933 13.2128C14.1556 13.1218 14.1003 13.0391 14.0306 12.9694L10.0603 9H15.75C15.9489 9 16.1397 8.92098 16.2803 8.78033C16.421 8.63968 16.5 8.44891 16.5 8.25C16.5 8.05109 16.421 7.86032 16.2803 7.71967C16.1397 7.57902 15.9489 7.5 15.75 7.5Z" fill="white"/>
</svg>
